PathFileType	4	(X/Y/Z)	/Users/niels/Desktop/University/Third Semester/Perception and Action/Exam/Gymnastics Motion Tracking/Code for Gym Tracking/Scripts/Analyzed Data/Start Salto/st_salto_bad_id5_1_Sports2D/st_salto_bad_id5_1_Sports2D_px_person00.trc
DataRate	CameraRate	NumFrames	NumMarkers	Units	OrigDataRate	OrigDataStartFrame	OrigNumFrames
29.886363636363633	29.886363636363633	8	22	m	29.886363636363633	33	264
Frame#	Time	Hip			RHip			RKnee			RAnkle			RBigToe			RSmallToe			RHeel			LHip			LKnee			LAnkle			LBigToe			LSmallToe			LHeel			Neck			Head			Nose			RShoulder			RElbow			RWrist			LShoulder			LElbow			LWrist		
		X1	Y1	Z1	X2	Y2	Z2	X3	Y3	Z3	X4	Y4	Z4	X5	Y5	Z5	X6	Y6	Z6	X7	Y7	Z7	X8	Y8	Z8	X9	Y9	Z9	X10	Y10	Z10	X11	Y11	Z11	X12	Y12	Z12	X13	Y13	Z13	X14	Y14	Z14	X15	Y15	Z15	X16	Y16	Z16	X17	Y17	Z17	X18	Y18	Z18	X19	Y19	Z19	X20	Y20	Z20	X21	Y21	Z21	X22	Y22	Z22
33	1.1041825095057036	0.007910989199409135	-0.48058561858742155	0.0	0.0035732454604121898	-0.4908016037412671	0.0	0.021557394766608947	-0.5544310523667738	0.0	-0.00725815982655016	-0.6834128858128022	0.0	0.022138739452262416	-0.7141833946609303	0.0	0.016734871411205884	-0.710905291188353	0.0	-0.012270059341142121	-0.714494735550254	0.0	-0.0030472041872497972	-0.4820299155533984	0.0	0.021737152939245618	-0.5543085045636421	0.0	-0.010625458247291475	-0.6799785032361778	0.0	0.02865573728306639	-0.71434199415269	0.0	0.026914938965202573	-0.7127669834116158	0.0	-0.020817660430482162	-0.7078286873449012	0.0	0.00030766141649609763	-0.23657587040313058	0.0	-0.005434211659442979	-0.1837781282384696	0.0	-0.0018094782619350667	-0.21841857926043445	0.0	0.0018502912598654315	-0.24158576419758318	0.0	0.0008656349983661801	-0.2614356477241748	0.0	0.019672708492369982	-0.20853425258873257	0.0	-0.0066456579023296	-0.24332981371581944	0.0	-0.004228318248964837	-0.2632549397742574	0.0	0.017933800872853078	-0.20827788566466188	0.0
34	1.137642585551331	0.00817933317994674	-0.4805479669374707	0.0	0.0036383366667258523	-0.4908173312359637	0.0	0.021282065946762192	-0.5544374727311332	0.0	-0.0074895904538823535	-0.6835057177495797	0.0	0.02191970495342136	-0.7142560755613537	0.0	0.016482449556211493	-0.7109550724028078	0.0	-0.012444086453338686	-0.7146531108314244	0.0	-0.002984794442697949	-0.48204579734201347	0.0	0.02137760660673465	-0.554387132131982	0.0	-0.010847367335690337	-0.6800948687212234	0.0	0.02832045493676015	-0.7144285357006924	0.0	0.026549733600685407	-0.7128743232567897	0.0	-0.020991506377063714	-0.7080202955105211	0.0	0.0004383514745364226	-0.2363871040175514	0.0	-0.00539685872761409	-0.18386592119907455	0.0	-0.0018053225579696983	-0.2185099929197452	0.0	0.0018376276742091704	-0.2412763997250574	0.0	0.0005375266821415159	-0.26158437925868866	0.0	0.019430327325231957	-0.2088823379532709	0.0	-0.006659053008862248	-0.2430783190201262	0.0	-0.004644782924528045	-0.26336834757690364	0.0	0.017429477274553965	-0.2084098578418039	0.0
35	1.1711026615969584	0.008037312724932622	-0.48017015815331093	0.0	0.0037208364687634386	-0.49061019208150136	0.0	0.021389270556652882	-0.5542717225468217	0.0	-0.007605580735203893	-0.6836079770935126	0.0	0.021746498501740708	-0.7144713377645601	0.0	0.016405455216262733	-0.7110212534092515	0.0	-0.012559474229298583	-0.7148164495176268	0.0	-0.003082197257549524	-0.48194426650316197	0.0	0.021218348105253075	-0.5544292061421263	0.0	-0.010996790101822985	-0.6802323290211812	0.0	0.02818440410092151	-0.7145646491401638	0.0	0.026372971132548828	-0.7129510784522813	0.0	-0.021147709217452352	-0.708097062979083	0.0	0.0005201264806212868	-0.23652156767286991	0.0	-0.005103981474653471	-0.18410551591558594	0.0	-0.001689159477746647	-0.21862636839974242	0.0	0.0017831456947344137	-0.24129979095964424	0.0	0.0005686789240654629	-0.2618254132919363	0.0	0.01970207833484549	-0.20915969013321795	0.0	-0.006789725894476628	-0.2431897300642001	0.0	-0.004817220597480205	-0.26348337619089274	0.0	0.01724887621287746	-0.2084725110319687	0.0
36	1.2045627376425858	0.0069940256020949	-0.4792152771018567	0.0	0.003791583430532455	-0.489998558040538	0.0	0.02235307883784442	-0.5537972340898409	0.0	-0.0073661049246608315	-0.6836662338920603	0.0	0.021797522775273293	-0.7148912964119459	0.0	0.01680375509297182	-0.7110839042944909	0.0	-0.012457388543978294	-0.7148850482163723	0.0	-0.003503075625319841	-0.4816246709433646	0.0	0.021648377861127333	-0.5543552292117507	0.0	-0.010872949059759593	-0.6803310421992979	0.0	0.028619913300540752	-0.7147318807104035	0.0	0.026768244093236852	-0.7129035734199639	0.0	-0.02115907267739449	-0.7078454543460171	0.0	0.0004299552684411198	-0.23735115681081873	0.0	-0.0043835383869470935	-0.18455623880458935	0.0	-0.0013775898703669096	-0.21872714622010853	0.0	0.0016629711245487494	-0.24211398402270148	0.0	0.0014497673768029712	-0.262132499472129	0.0	0.02104167410003188	-0.20908440643600054	0.0	-0.007119088606642134	-0.2441074477973303	0.0	-0.004285798775260365	-0.2635271445785657	0.0	0.01797053065277971	-0.2083262887241092	0.0
37	1.2380228136882132	0.004449373668127381	-0.4774865976510302	0.0	0.0037876168661363477	-0.4888068314791165	0.0	0.024762007166329286	-0.5528849777603246	0.0	-0.006422052223800427	-0.6835798171746419	0.0	0.02235838834011714	-0.7155326271234784	0.0	0.018093099261322826	-0.7110970528236553	0.0	-0.011895206311788064	-0.7146793035888604	0.0	-0.0044324638719257054	-0.48098571834261966	0.0	0.023224859471080318	-0.5540484760407715	0.0	-0.010168080997312005	-0.6802713693149377	0.0	0.030155346696640405	-0.7148651868433626	0.0	0.028290892644703337	-0.7125861024561707	0.0	-0.020812139361501624	-0.7069628239683555	0.0	-1.7811756564712113e-05	-0.2393224199024074	0.0	-0.0030982353456691807	-0.18522380588509219	0.0	-0.0007963060107533443	-0.21872426736441666	0.0	0.0014622083088746216	-0.2443116876313475	0.0	0.003813892625030988	-0.26239887315822713	0.0	0.02409248794641159	-0.2082040804399249	0.0	-0.0077144890939173415	-0.24637856892683357	0.0	-0.002396652856324394	-0.2633696786177964	0.0	0.020406175332192633	-0.20776964737837705	0.0
38	1.2714828897338406	-6.902071803724342e-05	-0.4750133372259483	0.0	0.0036052516139594543	-0.4869888002831099	0.0	0.029097140166143176	-0.5515085229607417	0.0	-0.004388247064657402	-0.6831994179165612	0.0	0.02378772905573247	-0.7162910298356279	0.0	0.020698213615868155	-0.7109816889951552	0.0	-0.010585914760010771	-0.7139434517949359	0.0	-0.005986223063624564	-0.4799907735391223	0.0	0.026548145992357434	-0.5533783333755738	0.0	-0.008516417308698069	-0.6798670149659226	0.0	0.03335170359340763	-0.7148291761799667	0.0	0.031549321517222784	-0.7118221565536472	0.0	-0.019824009767114372	-0.7051284786483693	0.0	-0.001039168672396109	-0.24277087104135353	0.0	-0.0012846928793072345	-0.18598032734622283	0.0	5.84060645557622e-05	-0.21847216490945648	0.0	0.0011974481570997029	-0.24842441229088513	0.0	0.008225359586273434	-0.2623925111416919	0.0	0.02929456320001564	-0.20594897349152788	0.0	-0.00856518453117431	-0.25044378922767035	0.0	0.0015467309316363547	-0.2628276533163494	0.0	0.02540189228021965	-0.20658261733905608	0.0
39	1.304942965779468	-0.006425909612884018	-0.47215011151326935	0.0	0.0031182968335057436	-0.48471568074871013	0.0	0.03533117110897216	-0.549878926887779	0.0	-0.000997853552435316	-0.6823705691117967	0.0	0.026395813499340254	-0.7168727158602461	0.0	0.02481594670731635	-0.7106466165166582	0.0	-0.008276723314795486	-0.7124207526931626	0.0	-0.00804787284183414	-0.4787143732108494	0.0	0.031997116800986554	-0.5522566397833512	0.0	-0.005604834766103586	-0.678925963977283	0.0	0.03854894759437269	-0.7144228826558947	0.0	0.03693027998574558	-0.7104731996112464	0.0	-0.01790203547520918	-0.7022036832886277	0.0	-0.0027742023773292715	-0.24755957311582533	0.0	0.000764495643469251	-0.18656675515254492	0.0	0.001101197595425434	-0.2178342668746471	0.0	0.0009399648978192523	-0.25446593998076567	0.0	0.01475938031466132	-0.2617654849034365	0.0	0.03639304944461069	-0.2018140362541334	0.0	-0.009470329101167765	-0.2562141099156163	0.0	0.007954170323191073	-0.2617442725395824	0.0	0.033419164905456315	-0.20462089463397173	0.0
40	1.3384030418250954	-0.01346241733712135	-0.4692751407192278	0.0	0.002209737057323136	-0.4822121716892765	0.0	0.04258432006022751	-0.5485382138542457	0.0	0.003730735352830365	-0.6810246694653685	0.0	0.030310678268180295	-0.7168202335701352	0.0	0.03019751068917066	-0.7100298791344722	0.0	-0.004831641941464728	-0.7099814051355373	0.0	-0.01013994632822478	-0.4772261579754217	0.0	0.03950752742466576	-0.5507103450424465	0.0	-0.001259092902505733	-0.6774235374804298	0.0	0.045675906003310056	-0.7134399459926123	0.0	0.04433509627311436	-0.708522726442772	0.0	-0.014797187955428387	-0.698496766205811	0.0	-0.005109084086762188	-0.25282586309429955	0.0	0.002709281204128807	-0.18686447356623884	0.0	0.002307984321038704	-0.21691824440992113	0.0	0.0007859236922599821	-0.26149919597467347	0.0	0.022581337504666763	-0.2601623592644319	0.0	0.04415843865924976	-0.19562145321830066	0.0	-0.009926860281122121	-0.2627709020753652	0.0	0.01667436434296634	-0.2601565145814481	0.0	0.04420670405287001	-0.2019188140642015	0.0
